<svg width="100px" height="100px" viewBox="0 0 100 100" xmlns="http://www.w3.org/2000/svg"><path d="m87.725 77.335 -18.895 -18.895a30.75 30.75 0 0 0 4.49 -16.05c0 -17.085 -14.805 -31.885 -31.89 -31.885A30.925 30.925 0 0 0 10.5 41.435c0 17.08 14.805 31.885 31.885 31.885a30.75 30.75 0 0 0 15.575 -4.22l18.995 19.005a4.765 4.765 0 0 0 6.73 0l4.715 -4.715c1.855 -1.855 1.18 -4.2 -0.675 -6.055M20.02 41.435a21.4 21.4 0 0 1 21.41 -21.415c11.83 0 22.37 10.535 22.37 22.37a21.425 21.425 0 0 1 -21.415 21.415c-11.83 -0.005 -22.365 -10.545 -22.365 -22.37" fill="white"/></svg>
