<?xml version="1.0" encoding="UTF-8" standalone="no"?>

<svg
   xmlns:dc="http://purl.org/dc/elements/1.1/"
   xmlns:cc="http://creativecommons.org/ns#"
   xmlns:rdf="http://www.w3.org/1999/02/22-rdf-syntax-ns#"
   xmlns:svg="http://www.w3.org/2000/svg"
   xmlns="http://www.w3.org/2000/svg"
   width="216.55426mm"
   height="213.57552mm"
   viewBox="0 0 216.55426 213.57552"
   version="1.1"
   author="denys.seguret@gmail.com"
   id="svg8">
  <defs
     id="defs2" />
  <g
     id="layer1"
     transform="translate(6.8340892,-10.791113)">
    <path
       style="fill:none;fill-rule:evenodd;stroke:#ffffff;stroke-width:5.82083333;stroke-linecap:butt;stroke-linejoin:miter;stroke-miterlimit:4;stroke-dasharray:none;stroke-opacity:1"
       d="M 50.152144,84.948776 C 33.077305,95.735818 10.165869,65.738001 1.106741,45.390224 c 22.51918,4.020856 43.920303,-2.709818 63.57568,18.541164 v 0"
       id="path817"
       />
    <path
       style="fill:none;fill-rule:evenodd;stroke:#ffffff;stroke-width:5.29166667;stroke-linecap:butt;stroke-linejoin:miter;stroke-miterlimit:4.5999999;stroke-dasharray:none;stroke-opacity:1"
       d="m 40.487042,157.83198 c 4.239212,-26.73036 4.112055,-50.10036 4.135277,-70.1066"
       id="path819"
       />
    <path
       style="fill:none;fill-rule:evenodd;stroke:#ffffff;stroke-width:3.5;stroke-linecap:butt;stroke-linejoin:miter;stroke-miterlimit:4;stroke-dasharray:none;stroke-opacity:1"
       d="m 56.414533,56.49375 c -10.210935,-16.103826 -4.07984,-26.892077 3.467445,-36.247917 1.652123,12.25397 7.617885,27.218801 16.98938,34.131251"
       id="path821"
       />
    <ellipse
       style="fill:#ffffff;fill-opacity:0.96585364;stroke:#ffffff;stroke-width:2.5;stroke-linejoin:round;stroke-miterlimit:4.5999999;stroke-dasharray:none;stroke-opacity:1"
       id="path4558"
       cx="60.721874"
       cy="105.70625"
       rx="9.3927078"
       ry="5.5562501" />
    <path
       style="fill:none;fill-rule:evenodd;stroke:#ffffff;stroke-width:5.82083333;stroke-linecap:butt;stroke-linejoin:miter;stroke-miterlimit:4;stroke-dasharray:none;stroke-opacity:1"
       d="m 152.73394,84.757671 c 17.07483,10.787042 39.98627,-19.210775 49.0454,-39.558552 -22.51918,4.020856 -43.9203,-2.709818 -63.57568,18.541164 v 0"
       id="path817-9"
       />
    <path
       style="fill:none;fill-rule:evenodd;stroke:#ffffff;stroke-width:5.29166667;stroke-linecap:butt;stroke-linejoin:miter;stroke-miterlimit:4.5999999;stroke-dasharray:none;stroke-opacity:1"
       d="m 158.36018,154.3533 c -6.66681,-14.27871 -3.49399,-45.30833 0.87572,-68.959347"
       id="path819-3"
       />
    <path
       style="fill:none;fill-rule:evenodd;stroke:#ffffff;stroke-width:3.5;stroke-linecap:butt;stroke-linejoin:miter;stroke-miterlimit:4;stroke-dasharray:none;stroke-opacity:1"
       d="m 146.47155,56.302645 c 10.21093,-16.103826 4.07984,-26.892077 -3.46745,-36.247917 -1.65212,12.25397 -7.61788,27.218801 -16.98938,34.131251"
       id="path821-6"
       />
    <ellipse
       style="fill:none;fill-opacity:1;stroke:#ffffff;stroke-width:6.61458333;stroke-linejoin:round;stroke-miterlimit:4;stroke-dasharray:none;stroke-opacity:1"
       id="path815-0"
       cx="-101.0215"
       cy="175.76199"
       rx="66.049438"
       ry="42.104641"
       transform="scale(-1,1)" />
    <ellipse
       style="fill:#ffffff;fill-opacity:0.96585364;stroke:#ffffff;stroke-width:2.5;stroke-linejoin:round;stroke-miterlimit:4.5999999;stroke-dasharray:none;stroke-opacity:1"
       id="path4558-6"
       cx="-138.9892"
       cy="105.70625"
       rx="9.3927078"
       ry="5.5562501"
       transform="scale(-1,1)" />
    <path
       style="fill:none;fill-rule:evenodd;stroke:#ffffff;stroke-width:2.64583333;stroke-linecap:butt;stroke-linejoin:miter;stroke-miterlimit:4;stroke-dasharray:none;stroke-opacity:1"
       d="m 77.522916,49.085417 c 4.304627,-0.913103 5.230935,-4.528863 6.085416,-8.202083 1.368655,2.571791 2.274204,5.297951 -0.529166,9.260417 7.099243,-4.806187 8.435167,-3.849056 10.054166,-3.175 l 3.175,-2.910417 -0.264583,3.175 c 5.961421,-2.657766 4.582911,-7.762177 4.497921,-12.435416 1.14838,3.350463 5.12981,5.284397 3.43958,10.054166 1.91665,-2.361841 3.94461,-4.538147 7.9375,-3.439583 -1.3874,1.940278 -2.84287,3.880555 -0.79375,5.820833 2.52045,-1.056198 5.35039,-0.632315 6.61458,-6.085417 1.83401,2.012563 4.08879,2.342084 5.29167,6.879167 v 0"
       id="path4682"
       />
    <path
       style="fill:none;fill-rule:evenodd;stroke:#ffffff;stroke-width:2;stroke-linecap:butt;stroke-linejoin:miter;stroke-miterlimit:4;stroke-dasharray:none;stroke-opacity:1"
       d="m 63.015909,141.81039 c -11.707504,12.04651 4.545275,6.24137 3.906289,21.0693 -0.676356,15.6951 -17.688407,11.57534 -26.964322,-5.04771"
       id="path4696"
       />
    <path
       style="fill:none;fill-rule:evenodd;stroke:#ffffff;stroke-width:2;stroke-linecap:butt;stroke-linejoin:miter;stroke-miterlimit:4;stroke-dasharray:none;stroke-opacity:1"
       d="m 139.03593,141.54582 c 11.70751,12.04651 -4.54527,6.24137 -3.90629,21.0693 0.67636,15.6951 17.68841,11.57534 26.96432,-5.04771"
       id="path4696-6"
       />
    <path
       style="fill:none;fill-rule:evenodd;stroke:#ffffff;stroke-width:3.96875;stroke-linecap:round;stroke-linejoin:miter;stroke-miterlimit:4;stroke-dasharray:none;stroke-opacity:1"
       d="m 40.043211,190.18608 c 25.593334,-9.3e-4 98.447459,10.01868 121.614709,1.06036"
       id="path4715"
       />
    <path
       style="fill:none;fill-rule:evenodd;stroke:#ffffff;stroke-width:2;stroke-linecap:butt;stroke-linejoin:miter;stroke-miterlimit:4;stroke-dasharray:none;stroke-opacity:1"
       d="m 90.267993,194.72707 c 1.731294,13.51924 17.780587,21.36242 21.431257,-0.26458"
       id="path4717"
       />
    <path
       style="fill:none;fill-rule:evenodd;stroke:#ffffff;stroke-width:1.5;stroke-linecap:butt;stroke-linejoin:miter;stroke-miterlimit:4;stroke-dasharray:none;stroke-opacity:1"
       d="m 101.64508,193.93331 c 0,0.49745 -0.79375,11.11251 -0.79375,11.11251"
       id="path4719"
       />
  </g>
</svg>
