<svg version="1" xmlns="http://www.w3.org/2000/svg" width="560" height="560" viewBox="0 0 420.000000 420.000000"><path fill="white" d="M205.3 3.2c-1.1 1.3-4.3 5.8-7.2 10-3.8 5.7-5.7 7.8-7.3 7.8-1.4 0-5.3-3-10.4-8-4.7-4.6-9-8-10.2-8-3.4 0-5.8 3.1-9.7 13-2.1 5.2-3.9 9.6-3.9 9.6-.1.1-1 .4-2.2.8-1.5.5-4.6-1.1-11.7-5.8-7.5-4.9-10.3-6.2-12.3-5.8-2.8.5-4.8 4.1-5.7 10.2-.2 1.9-1 6-1.7 9.2-1.8 7.9-3.3 8.3-13.5 4.1-4.4-1.9-8.8-3.8-9.7-4.3-.9-.5-2.7-.7-3.9-.5-4.5.9-5.1 2.5-5.1 14.8 0 10-.3 11.8-1.8 13.2-1 .9-2.3 1.4-2.8 1.1-.5-.3-2.8-.8-5.2-1.1-2.3-.3-4.6-.7-5-1-.4-.3-2.5-.7-4.6-1.1-2.2-.3-4.1-.7-4.2-.9-.2-.2-1.7.1-3.3.7-4.1 1.4-4.4 3.8-1.9 16.3 2.7 14 2.9 13.7-12.3 13.9-13.3.2-15.1 1-14.4 6.5.2 2 2.1 7.5 4.1 12.3 4.8 11.4 4.5 12-7.8 14.3-11.6 2.1-12.3 2.3-14.1 4.1-2.6 2.6-1.7 5.6 4.5 14.9 3.3 4.9 6 9.7 6 10.6 0 2.4-1.4 3.3-11.5 7.4-10 4.1-11.3 5-12 8.5-.4 1.8 1.2 4 8.1 11 10.4 10.6 10.3 11.2-1.5 18.9C2.6 205.4 0 208.1.5 210.8c.2.9.4 2 .4 2.3.1.4 4.3 3.5 9.5 7s9.7 7.2 10 8.3c.4 1.6-1.5 4.1-7.9 10.7-7.5 7.6-8.4 8.9-7.9 11.5.6 3.4 1 3.7 12.9 8.7 4.9 2 9.3 4.3 9.7 5 1.2 1.8 1 4.4-.4 5.9-3.1 3.2-10.8 16-10.8 17.8 0 3.9 3.4 5.7 14 7.6 14.2 2.5 14.4 2.9 8.7 16.5-4.4 10.6-4.6 12-1.9 15.1 1.3 1.5 3.3 1.8 12.9 1.8 15.3 0 15.1-.2 12.4 13.6-2.5 12.5-2.5 12.5-.8 14.7 1.8 2.5 4.5 2.7 12.3 1.1 17.6-3.7 17.2-4 17.2 11.1-.1 9.7.2 11.8 1.7 13.5 1 1.1 2.6 2 3.5 2 1.5 0 8.3-2.5 17.3-6.4 4.2-1.8 7.2-1.4 8.5 1.2.5.9 1.7 6.1 2.7 11.5 1.8 9.9 3.5 12.7 7.5 12.7.8 0 5.8-2.9 11-6.4 7.2-4.8 9.9-6.2 11.5-5.6 1.3.5 3.3 3.9 6 10.5 4.2 10.1 7.1 13.7 10.5 12.8 1-.3 5.4-4.1 9.7-8.4 5-5.1 8.5-7.9 9.9-7.9 1.7 0 3.6 2.1 7.9 8.7 6.5 10 7.8 11.3 11.6 11.3 2.4 0 3.7-1.4 9.1-9.5 8.5-12.8 8.8-12.9 19.1-2.7 4.5 4.4 8.9 8.2 9.7 8.5 3.5 1.1 6.5-2.4 10.5-12.5 2.8-7.1 4.6-10.3 6.1-10.9 1.6-.6 4.2.7 11.5 5.7 5.2 3.5 10.1 6.4 10.9 6.4.9 0 2.5-.7 3.6-1.5 2-1.3 2.4-2.5 5.1-16.5.3-1.4.6-3.2.8-4 .2-.8.4-2 .4-2.6.2-2.8 4.9-2.3 14.8 1.7 11 4.5 14.6 4.7 15.9.6.4-1.2.8-7.1.8-13 .2-13.8 0-13.7 14.7-10.8 15 3 17.3 1.4 15-10.1-.6-2.9-1.4-6.4-1.6-7.8-2.2-10.5-1.6-11 12.8-11 6.2 0 11.7-.4 12.4-.8.7-.4 1.6-1.9 2.1-3.2.7-2 0-4.6-3.4-12.8-4.1-9.7-4.3-10.6-2.9-13 .8-1.5 1.4-2.4 1.5-2.1 0 1.1 20.8-3.7 22.5-5.1 2.7-2.2 1.6-5.9-4.6-15.1-4.4-6.6-5.9-9.7-5.5-11.3.4-1.7 3.1-3.3 11.5-7 10.5-4.5 12-5.8 12.1-10 0-.5-3.8-4.7-8.5-9.5-6.7-6.9-8.3-9.1-7.9-10.8.4-1.3 4.3-4.6 10-8.3 5.1-3.4 9.6-7.1 10-8.2.9-3.1-2-6.3-11-12.2-5.1-3.3-8.5-6.3-8.9-7.7-.5-1.8 1-3.9 7.9-11 4.6-4.8 8.4-9.4 8.4-10.2 0-2.9-3.7-5.7-12.5-9.3-10.1-4.1-11.5-5-11.5-7.3 0-.9 2.7-5.7 6-10.6 7.1-10.7 7.6-13.6 2.5-16.2-1.7-.9-7.2-2.2-11-2.8-13.6-1.8-14-2.6-8.1-16.6 6.4-15.1 5.3-16.8-11.7-16.5-11.9.1-14.2-.9-13.3-5.5 4.2-21.3 4.3-22.9.4-24.6-1.3-.5-3.8-.6-5.8-.2-1.9.5-5.3 1.1-7.5 1.4-2.2.3-5.6 1-7.5 1.5-5.7 1.6-6.5-.1-6.6-13.7 0-10.7-.2-11.7-2.2-13.4-2.8-2.2-4.9-1.8-16 3-12.2 5.3-12.9 4.8-15.6-10.9-1.5-9.1-1.9-10.1-4.5-11.4-3.3-1.7-3.7-1.5-14.5 5.6-5 3.2-9.6 5.6-10.4 5.3-.7-.3-1.8-.5-2.3-.5-.5 0-.9-.6-.9-1.3 0-.6-.6-2.3-1.3-3.7-.7-1.4-2.4-5.2-3.7-8.5-4.8-12.3-7.2-12.5-18.4-1.5-5.2 5-9 8-10.4 8-1.6 0-3.7-2.4-8.3-9.3-3.4-5-6.7-9.5-7.3-9.9-2.1-1.4-5.3-.8-7.3 1.4zM232 57.9c11.9 2 14.5 2.7 26 6.3 5.2 1.7 9.9 3.4 10.4 3.9.6.5 1.7.9 2.5.9.9 0 2.6.8 3.9 1.8 1.8 1.4 2.6 3.8 4.3 13.7 1.1 6.5 2.2 12.2 2.5 12.7.7 1 3.9 1-55.3 1h-51.1l-.4 2.7c-.1 1.4-.3 11.8-.3 23.1l.1 20.5 19.1.2c10.5.1 21 .7 23.2 1.3 6.7 1.8 7.4 4.2 7.5 26l.1 18.5-9 .2c-4.9.1-23.2.4-40.5.7-17.3.3-33.1.8-35 1.1-20.5 3.4-41.2 18.1-49.9 35.4-2.2 4.5-4.3 9.7-4.7 11.6-.7 4-.9 4.1-4.9 1.7-1.6-1-7-4-12-6.6-4.9-2.7-9.7-5.4-10.6-6.2-3.6-3.2-2.7-34.8 1.6-52.9 5.5-23.3 19-50 33.4-65.7l5-5.4 8.3 1.2c4.6.6 10.6 1.5 13.3 1.8 2.8.4 6.2.9 7.7 1.2 6.3 1.3 10.9-2.2 12.2-9.1.2-1.1 1.4-8 2.7-15.4 2.2-12 2.6-13.4 4.9-14.6 2.3-1.2 19.1-7.4 21.5-7.9 17.6-4.1 28.1-5.3 43.5-5 7.4.1 16.4.7 20 1.3zM123.6 70.5c5.5 3.6 7.1 10.3 4 16.3-4.7 9-18 8.9-22.4-.2-5.7-11.5 7.6-23.2 18.4-16.1zm188 0c5.5 3.6 7.3 10.2 4.3 16.2-2.2 4.4-4.5 6.1-9.4 6.9-7.2 1.1-14.5-5.2-14.5-12.6 0-10 11.2-16 19.6-10.5zm38.7 77.5c3 5.8 8.8 23.7 10.1 31.5.3 1.6.8 4.1 1.1 5.5.9 4.4 1.9 18.3 1.8 25-.1 14.2-.6 18.2-2.4 19.9-1 .9-6.6 4.1-12.5 7.1s-12.2 6.9-14 8.6c-4.2 3.9-4 6.3 1.6 17.3 3.4 6.9 3.8 8.1 2.3 8.2-5.7.3-31.4-.2-34.6-.7-4.6-.7-6.5-3.4-7.4-10-1.5-11.2-.5-106.2 1.2-110.4 1.4-3.8 4.5-4.5 23.5-5 29.6-.8 27.2-1 29.3 3zm-125.5 98.9c.1 22.2 0 24.1-1.6 24.2-4.8.2-33.5-.2-38.6-.6-12.2-1-19.3-4.9-21.7-12.3-2.5-7.5-.4-21.6 3.9-26.7 2.4-2.8 7.1-6 10.7-7.2 1.7-.5 12.9-1.1 25.1-1.2l22.1-.2.1 24zm-159.8.5c4.9 2.1 7.5 11.7 4.6 17.1-6 11.1-23.7 7.2-23.8-5.3 0-5.1 1.6-8.6 4.9-11 4.3-3 8.5-3.3 14.3-.8zm303.6.2c6.2 3 8.7 12.2 4.9 18.1-7.3 11.2-25 4.6-23.2-8.7 1.2-9 9.8-13.4 18.3-9.4zM85.4 268.4c.4 1.9 2.3 6.7 4.3 10.7 3.9 7.9 14.3 19.2 22.3 24.5 10 6.5 25.3 12 39 13.9 2.5.3 41.4.6 86.5.6h82l-6 5.5c-16.7 15.4-39.8 28.4-61.3 34.5-13.7 3.9-12.3 4.3-24.3-7.5-5.9-5.7-11.8-11.2-13.3-12.1-4.5-3-7.5-1.3-20.7 11.4l-12.3 11.8-6.5-1.5c-23.3-5.3-46-16.8-65.7-33.2-11.6-9.8-26.2-27.1-32.3-38.4l-2.5-4.4 4.2-8.7c2.3-4.7 4.2-9 4.2-9.6 0-2.4 1.9-.5 2.4 2.5zm131 90.1c8.3 4 9 16.9 1.1 22.1-5.8 3.8-16.2.8-18.6-5.3-4.4-11.7 6.3-22.1 17.5-16.8z"/></svg>
